<svg xmlns="http://www.w3.org/2000/svg" viewBox="0 0 770 762"><path fill="#0072BC" stroke="#0072BC" stroke-width="3" stroke-linejoin="round" d="M590.5 573.5l25 187-118-161 93-26z"/><path fill="#0072BC" stroke="#0072BC" stroke-width="3" stroke-linejoin="round" d="M573.5 460.5l-76-110 75 9 196 195-183-59 4 71-106 28-60-89 150-45z"/><path fill="#0072BC" stroke="#0072BC" stroke-width="3" stroke-linejoin="round" d="M558.5 448.5l-119-100 45-3 74 103zm-184-93l-17-21 28-17 153 123-164-85zm-25 74l54-42-25-24 176 91-182 15-62 43-5-5 50-44-6-34z"/><path fill="#0072BC" stroke="#0072BC" stroke-width="3" stroke-linejoin="round" d="M322.5 525.5l-7-10 59-38 178-15-230 63zm-2 6l-49 7 25-26 24 19zm74-145l-45 34-22-101 67 67zm-49 58l-75-97 45-35 30 132zm3 18l-75 62-8-169 83 107z"/><path fill="#0072BC" stroke="#0072BC" stroke-width="3" stroke-linejoin="round" d="M95.5 753.5l90-290-58-22 130-77 8 181 51-8-221 216zm162-399l-42 23 35-139h55l-48 116zm-120-167l-18-83 56 20 66 106-32 152-79 46 7-241zm-24-84l-19 13-93-115 112 102z"/><path fill="#0072BC" stroke="#0072BC" stroke-width="3" stroke-linejoin="round" d="M17.5 258.5l5-68 93-76 12 79-110 65z"/></svg>